<svg xmlns="http://www.w3.org/2000/svg" viewBox="0 0 64 80" fill="none">
  <path d="M32 4 C46 16 50 36 46 56 C42 68 36 76 32 78 C28 76 22 68 18 56 C14 36 18 16 32 4 Z" fill="#5C7E60"/>
  <path d="M32 4 C40 16 42 36 38 56 C36 64 34 70 32 74 L32 4 Z" fill="#6F8E72" opacity="0.55"/>
  <path d="M32 6 L32 76" stroke="#3D5840" stroke-width="1.2" stroke-linecap="round"/>
  <path d="M32 18 Q38 22 44 24" stroke="#3D5840" stroke-width="0.9" stroke-linecap="round" fill="none"/>
  <path d="M32 32 Q40 36 46 40" stroke="#3D5840" stroke-width="0.9" stroke-linecap="round" fill="none"/>
  <path d="M32 46 Q38 50 42 54" stroke="#3D5840" stroke-width="0.9" stroke-linecap="round" fill="none"/>
  <path d="M32 58 Q36 62 38 66" stroke="#3D5840" stroke-width="0.9" stroke-linecap="round" fill="none"/>
  <path d="M32 18 Q26 22 20 24" stroke="#3D5840" stroke-width="0.9" stroke-linecap="round" fill="none"/>
  <path d="M32 32 Q24 36 18 40" stroke="#3D5840" stroke-width="0.9" stroke-linecap="round" fill="none"/>
  <path d="M32 46 Q26 50 22 54" stroke="#3D5840" stroke-width="0.9" stroke-linecap="round" fill="none"/>
  <path d="M32 58 Q28 62 26 66" stroke="#3D5840" stroke-width="0.9" stroke-linecap="round" fill="none"/>
</svg>
